<svg width="40" height="40" viewBox="0 0 40 40" fill="none" xmlns="http://www.w3.org/2000/svg">
<g clip-path="url(#clip0_6_9)">
<path d="M32 0H8C3.58172 0 0 3.58172 0 8V32C0 36.4183 3.58172 40 8 40H32C36.4183 40 40 36.4183 40 32V8C40 3.58172 36.4183 0 32 0Z" fill="white"/>
<path d="M25.5584 35C31.0618 30.2053 36.3332 16.3208 26.4867 5C29.2053 8.96226 29.7026 14.889 25.1937 19.5505C21.5866 23.2797 23.9339 31.404 25.5584 35Z" fill="#0E0E13"/>
<path d="M14.4417 5C8.93826 9.79468 3.66688 23.6792 13.5134 35C10.7948 31.0377 10.2975 25.111 14.8064 20.4495C18.4135 16.7203 16.0662 8.59601 14.4417 5Z" fill="#0E0E13"/>
</g>
<defs>
<clipPath id="clip0_6_9">
<rect width="40" height="40" fill="white"/>
</clipPath>
</defs>
</svg>
