<svg width="52" height="20" viewBox="0 0 52 20" fill="none" xmlns="http://www.w3.org/2000/svg">
<g clip-path="url(#clip0_6_18)">
<path d="M1.524 15V6.6H5.76C6.496 6.6 7.156 6.708 7.74 6.924C8.324 7.14 8.824 7.444 9.24 7.836C9.656 8.22 9.976 8.668 10.2 9.18C10.424 9.684 10.536 10.224 10.536 10.8C10.536 11.384 10.424 11.932 10.2 12.444C9.976 12.948 9.656 13.392 9.24 13.776C8.824 14.16 8.32 14.46 7.728 14.676C7.144 14.892 6.488 15 5.76 15H1.524ZM4.116 13.404L3.672 12.792H5.7C6.052 12.792 6.364 12.736 6.636 12.624C6.916 12.512 7.148 12.364 7.332 12.18C7.516 11.988 7.652 11.776 7.74 11.544C7.836 11.304 7.884 11.056 7.884 10.8C7.884 10.544 7.836 10.3 7.74 10.068C7.652 9.828 7.512 9.616 7.32 9.432C7.136 9.24 6.908 9.088 6.636 8.976C6.364 8.864 6.052 8.808 5.7 8.808H3.636L4.116 8.22V13.404ZM11.5363 15L15.3763 6.6H17.5243L21.3523 15H18.7603L16.9123 10.92C16.8163 10.712 16.7323 10.524 16.6603 10.356C16.5963 10.18 16.5363 10.016 16.4803 9.864C16.4323 9.712 16.3843 9.556 16.3363 9.396C16.2883 9.236 16.2403 9.064 16.1923 8.88H16.6603C16.6123 9.072 16.5643 9.248 16.5163 9.408C16.4683 9.568 16.4123 9.728 16.3483 9.888C16.2923 10.04 16.2283 10.2 16.1563 10.368C16.0843 10.528 16.0043 10.712 15.9163 10.92L14.0803 15H11.5363ZM13.4083 13.824L14.1763 12.06H18.7363L19.2283 13.824H13.4083ZM29.0265 15V6.6H31.6185V15H29.0265ZM23.0865 15V6.6H25.6785V15H23.0865ZM24.0585 11.964L24.0825 9.708H30.4905V11.964H24.0585ZM38.8646 15.072C38.0326 15.072 37.2966 14.912 36.6566 14.592C36.0246 14.272 35.5326 13.828 35.1806 13.26C34.8286 12.692 34.6526 12.048 34.6526 11.328V6.6H37.2686V11.256C37.2686 11.576 37.3366 11.856 37.4726 12.096C37.6086 12.336 37.7966 12.524 38.0366 12.66C38.2766 12.788 38.5526 12.852 38.8646 12.852C39.1846 12.852 39.4686 12.788 39.7166 12.66C39.9726 12.524 40.1686 12.336 40.3046 12.096C40.4486 11.856 40.5206 11.576 40.5206 11.256V6.6H43.0766V11.328C43.0766 12.048 42.9006 12.692 42.5486 13.26C42.1966 13.828 41.7046 14.272 41.0726 14.592C40.4406 14.912 39.7046 15.072 38.8646 15.072ZM46.2818 15V12.852H48.2258V8.748H46.2818V6.6H52.7618V8.748H50.8178V12.852H52.7618V15H46.2818Z" fill="white"/>
</g>
<defs>
<clipPath id="clip0_6_18">
<rect width="52" height="20" fill="white"/>
</clipPath>
</defs>
</svg>
