<svg width="14" height="14" viewBox="0 0 14 14" fill="none" xmlns="http://www.w3.org/2000/svg">
<g clip-path="url(#clip0_6_26)">
<mask id="mask0_6_26" style="mask-type:luminance" maskUnits="userSpaceOnUse" x="0" y="0" width="14" height="14">
<path d="M14 0H0V14H14V0Z" fill="white"/>
</mask>
<g mask="url(#mask0_6_26)">
<path d="M6.99992 10.5C5.06692 10.5 3.49992 8.93303 3.49992 7.00004C3.49992 5.06704 5.06692 3.50004 6.99992 3.50004C8.93291 3.50004 10.4999 5.06704 10.4999 7.00004C10.4999 8.93303 8.93291 10.5 6.99992 10.5ZM6.99992 9.33337C8.28856 9.33337 9.33325 8.28868 9.33325 7.00004C9.33325 5.71138 8.28856 4.66671 6.99992 4.66671C5.71125 4.66671 4.66658 5.71138 4.66658 7.00004C4.66658 8.28868 5.71125 9.33337 6.99992 9.33337ZM6.41658 0.583374H7.58325V2.33337H6.41658V0.583374ZM6.41658 11.6667H7.58325V13.4167H6.41658V11.6667ZM2.05017 2.87525L2.87513 2.05029L4.11256 3.28773L3.28761 4.11269L2.05017 2.87525ZM9.88724 10.7123L10.7123 9.88736L11.9497 11.1248L11.1247 11.9498L9.88724 10.7123ZM11.1247 2.05029L11.9497 2.87525L10.7123 4.11269L9.88724 3.28773L11.1247 2.05029ZM3.28761 9.88736L4.11256 10.7123L2.87513 11.9498L2.05017 11.1248L3.28761 9.88736ZM13.4166 6.41671V7.58337H11.6666V6.41671H13.4166ZM2.33325 6.41671V7.58337H0.583252V6.41671H2.33325Z" fill="#E8E8F6"/>
</g>
</g>
<defs>
<clipPath id="clip0_6_26">
<rect width="14" height="14" fill="white"/>
</clipPath>
</defs>
</svg>
